<svg xmlns="http://www.w3.org/2000/svg" width="1180" height="468" viewBox="0 0 1180 468" role="img">
<rect width="100%" height="100%" fill="#f8fafc" />
<text x="48" y="34" fill="#0f172a" font-family="Segoe UI, Malgun Gothic, sans-serif" font-size="24" font-weight="700">lit local VCS prototype execution flow</text>
<text x="48" y="56" fill="#475569" font-family="Segoe UI, Malgun Gothic, sans-serif" font-size="13" font-weight="600">Layer 1</text>
<text x="360" y="56" fill="#475569" font-family="Segoe UI, Malgun Gothic, sans-serif" font-size="13" font-weight="600">Layer 2</text>
<text x="672" y="56" fill="#475569" font-family="Segoe UI, Malgun Gothic, sans-serif" font-size="13" font-weight="600">Layer 3</text>
<path d="M 268 124.0 C 314.0 124.0, 314.0 124.0, 348 124.0" stroke="#94a3b8" stroke-width="3" fill="none" stroke-linecap="round" />
<polygon points="340,117.0 356,124.0 340,131.0" fill="#94a3b8" />
<path d="M 268 124.0 C 314.0 124.0, 314.0 264.0, 348 264.0" stroke="#94a3b8" stroke-width="3" fill="none" stroke-linecap="round" />
<polygon points="340,257.0 356,264.0 340,271.0" fill="#94a3b8" />
<path d="M 580 124.0 C 626.0 124.0, 626.0 124.0, 660 124.0" stroke="#94a3b8" stroke-width="3" fill="none" stroke-linecap="round" />
<polygon points="652,117.0 668,124.0 652,131.0" fill="#94a3b8" />
<path d="M 580 264.0 C 626.0 264.0, 626.0 124.0, 660 124.0" stroke="#94a3b8" stroke-width="3" fill="none" stroke-linecap="round" />
<polygon points="652,117.0 668,124.0 652,131.0" fill="#94a3b8" />
<path d="M 580 124.0 C 626.0 124.0, 626.0 264.0, 660 264.0" stroke="#94a3b8" stroke-width="3" fill="none" stroke-linecap="round" />
<polygon points="652,257.0 668,264.0 652,271.0" fill="#94a3b8" />
<path d="M 580 264.0 C 626.0 264.0, 626.0 264.0, 660 264.0" stroke="#94a3b8" stroke-width="3" fill="none" stroke-linecap="round" />
<polygon points="652,257.0 668,264.0 652,271.0" fill="#94a3b8" />
<rect x="48" y="68" rx="20" ry="20" width="220" height="112" fill="#0f766e" />
<text x="66" y="94" fill="#ecfeff" font-family="Segoe UI, Malgun Gothic, sans-serif" font-size="14" font-weight="700">ST1</text>
<text x="66" y="118" fill="#ecfeff" font-family="Segoe UI, Malgun Gothic, sans-serif" font-size="13">Stabilize Core Repository Spine</text>
<text x="66" y="144" fill="#ecfeff" font-family="Segoe UI, Malgun Gothic, sans-serif" font-size="11">Create the shared storage, history, and command-module...</text>
<text x="66" y="164" fill="#ecfeff" font-family="Segoe UI, Malgun Gothic, sans-serif" font-size="11">completed</text>
<rect x="360" y="68" rx="20" ry="20" width="220" height="112" fill="#1d4ed8" />
<text x="378" y="94" fill="#eff6ff" font-family="Segoe UI, Malgun Gothic, sans-serif" font-size="14" font-weight="700">ST2</text>
<text x="378" y="118" fill="#eff6ff" font-family="Segoe UI, Malgun Gothic, sans-serif" font-size="13">Finish Branch and Checkout Workflows</text>
<text x="378" y="144" fill="#eff6ff" font-family="Segoe UI, Malgun Gothic, sans-serif" font-size="11">Implement local branch creation, switching, and revisio...</text>
<text x="378" y="164" fill="#eff6ff" font-family="Segoe UI, Malgun Gothic, sans-serif" font-size="11">running</text>
<rect x="360" y="208" rx="20" ry="20" width="220" height="112" fill="#1d4ed8" />
<text x="378" y="234" fill="#eff6ff" font-family="Segoe UI, Malgun Gothic, sans-serif" font-size="14" font-weight="700">ST3</text>
<text x="378" y="258" fill="#eff6ff" font-family="Segoe UI, Malgun Gothic, sans-serif" font-size="13">Implement Merge and Rebase Engine</text>
<text x="378" y="284" fill="#eff6ff" font-family="Segoe UI, Malgun Gothic, sans-serif" font-size="11">Add real local merge and rebase with predictable confli...</text>
<text x="378" y="304" fill="#eff6ff" font-family="Segoe UI, Malgun Gothic, sans-serif" font-size="11">running</text>
<rect x="672" y="68" rx="20" ry="20" width="220" height="112" fill="#cbd5e1" />
<text x="690" y="94" fill="#0f172a" font-family="Segoe UI, Malgun Gothic, sans-serif" font-size="14" font-weight="700">ST4</text>
<text x="690" y="118" fill="#0f172a" font-family="Segoe UI, Malgun Gothic, sans-serif" font-size="13">Cover Core Workflows with CLI Tests</text>
<text x="690" y="144" fill="#0f172a" font-family="Segoe UI, Malgun Gothic, sans-serif" font-size="11">Add integration-style tests for the required command be...</text>
<text x="690" y="164" fill="#0f172a" font-family="Segoe UI, Malgun Gothic, sans-serif" font-size="11">pending</text>
<rect x="672" y="208" rx="20" ry="20" width="220" height="112" fill="#cbd5e1" />
<text x="690" y="234" fill="#0f172a" font-family="Segoe UI, Malgun Gothic, sans-serif" font-size="14" font-weight="700">ST5</text>
<text x="690" y="258" fill="#0f172a" font-family="Segoe UI, Malgun Gothic, sans-serif" font-size="13">Publish README and Static Website</text>
<text x="690" y="284" fill="#0f172a" font-family="Segoe UI, Malgun Gothic, sans-serif" font-size="11">Document lit with a concise README and simple English l...</text>
<text x="690" y="304" fill="#0f172a" font-family="Segoe UI, Malgun Gothic, sans-serif" font-size="11">pending</text>
</svg>