<svg width="1460" height="1040" viewBox="0 0 1460 1040" fill="none" xmlns="http://www.w3.org/2000/svg" role="img" aria-labelledby="title desc">
  <title id="title">jakal-flow backend code generation flow</title>
  <desc id="desc">A backend-focused diagram showing how jakal-flow isolates a project, generates an execution plan, runs Codex passes, verifies changes, recovers from failures, and persists artifacts.</desc>
  <defs>
    <linearGradient id="bg" x1="36" y1="28" x2="1424" y2="1012" gradientUnits="userSpaceOnUse">
      <stop offset="0" stop-color="#F7F4EE"/>
      <stop offset="0.55" stop-color="#F2F8FF"/>
      <stop offset="1" stop-color="#EEF8F1"/>
    </linearGradient>
    <linearGradient id="band" x1="42" y1="186" x2="1418" y2="264" gradientUnits="userSpaceOnUse">
      <stop offset="0" stop-color="#EFF5FF"/>
      <stop offset="1" stop-color="#F5FBF6"/>
    </linearGradient>
    <filter id="shadow" x="-20%" y="-20%" width="140%" height="160%">
      <feDropShadow dx="0" dy="8" stdDeviation="10" flood-color="#203040" flood-opacity="0.10"/>
    </filter>
    <marker id="arrow" viewBox="0 0 10 10" refX="9" refY="5" markerWidth="8" markerHeight="8" orient="auto">
      <path d="M0 0L10 5L0 10Z" fill="#60748A"/>
    </marker>
    <style>
      .title { font: 700 34px 'Segoe UI', 'Bahnschrift', 'Malgun Gothic', sans-serif; fill: #172433; }
      .subtitle { font: 500 16px 'Segoe UI', 'Malgun Gothic', sans-serif; fill: #4F6275; }
      .section { font: 700 12px 'Segoe UI', 'Bahnschrift', sans-serif; letter-spacing: 0.11em; fill: #294055; }
      .panelTitle { font: 700 15px 'Segoe UI', 'Bahnschrift', 'Malgun Gothic', sans-serif; fill: #162636; }
      .body { font: 500 9.8px 'Segoe UI', 'Malgun Gothic', sans-serif; fill: #4C6074; }
      .mono { font: 700 7.2px 'Consolas', 'Courier New', monospace; fill: #1F3447; }
      .chipLabel { font: 700 9.2px 'Segoe UI', 'Bahnschrift', sans-serif; fill: #FFFFFF; }
      .chipText { font: 600 7.1px 'Segoe UI', 'Malgun Gothic', sans-serif; fill: rgba(255,255,255,0.92); }
      .panel { fill: #FFFFFF; stroke: #D6E1EB; stroke-width: 1.5; filter: url(#shadow); }
      .soft { fill: #FFFFFF; stroke: #D6E1EB; stroke-width: 1.2; }
      .line { stroke: #60748A; stroke-width: 2.6; fill: none; marker-end: url(#arrow); }
      .divider { stroke: #D6E1EB; stroke-width: 1.4; stroke-linecap: round; }
      .dash { stroke: #A8BACB; stroke-width: 1.6; stroke-linecap: round; stroke-dasharray: 6 6; }
    </style>
  </defs>

  <rect x="16" y="16" width="1428" height="1008" rx="28" fill="url(#bg)"/>

  <text x="44" y="72" class="title">jakal-flow: backend code generation flow</text>
  <text x="44" y="100" class="subtitle">UI starts the run; the Python orchestration core does the real work.</text>
  <text x="44" y="124" class="subtitle">Planning, execution, verification, rollback, and reports stay isolated per repo.</text>

  <rect x="44" y="146" width="156" height="34" rx="12" fill="#1D4ED8"/>
  <text x="60" y="167" class="chipLabel">PLAN</text>
  <text x="112" y="167" class="chipText">prompt packing</text>

  <rect x="212" y="146" width="176" height="34" rx="12" fill="#0F766E"/>
  <text x="228" y="167" class="chipLabel">EXECUTE</text>
  <text x="294" y="167" class="chipText">Codex pass</text>

  <rect x="400" y="146" width="186" height="34" rx="12" fill="#B45309"/>
  <text x="416" y="167" class="chipLabel">VERIFY</text>
  <text x="472" y="167" class="chipText">cache and debugger</text>

  <rect x="598" y="146" width="198" height="34" rx="12" fill="#475569"/>
  <text x="614" y="167" class="chipLabel">PERSIST</text>
  <text x="682" y="167" class="chipText">logs, memory, reports</text>

  <rect x="44" y="192" width="1372" height="74" rx="18" fill="url(#band)" stroke="#D6E1EB" stroke-width="1.5" filter="url(#shadow)"/>
  <text x="64" y="218" class="section">ENTRY AND RUNTIME</text>
  <line x1="64" y1="228" x2="1396" y2="228" class="divider"/>

  <rect x="68" y="239" width="426" height="18" rx="9" fill="#1D4ED8"/>
  <text x="82" y="252" class="chipLabel">Trigger</text>
  <text x="132" y="252" class="chipText">CLI run/resume or bridge command</text>

  <rect x="518" y="239" width="458" height="18" rx="9" fill="#0F766E"/>
  <text x="532" y="252" class="chipLabel">Runtime</text>
  <text x="586" y="252" class="chipText">model, provider, sandbox, approvals, checkpoints</text>

  <rect x="1000" y="239" width="392" height="18" rx="9" fill="#B45309"/>
  <text x="1014" y="252" class="chipLabel">Verify Contract</text>
  <text x="1104" y="252" class="chipText">tests, rollback, optional push, PR bundle</text>

  <rect x="40" y="286" width="260" height="460" rx="20" class="panel"/>
  <text x="60" y="314" class="section">1. PROJECT ISOLATION</text>

  <rect x="58" y="336" width="224" height="94" rx="14" fill="#F5F9FF" stroke="#C9D9EE"/>
  <text x="74" y="358" class="panelTitle">WorkspaceManager</text>
  <text x="74" y="382" class="mono">build_paths()</text>
  <text x="74" y="402" class="body">Creates per-repo docs, logs, memory,</text>
  <text x="74" y="418" class="body">reports, and state paths.</text>

  <rect x="58" y="446" width="224" height="112" rx="14" fill="#F6FCFA" stroke="#CAE8DF"/>
  <text x="74" y="468" class="panelTitle">setup_local_project()</text>
  <text x="74" y="490" class="body">or init_repo()</text>
  <text x="74" y="512" class="body">Attaches or clones the repo,</text>
  <text x="74" y="528" class="body">prepares env + git config, and</text>
  <text x="74" y="544" class="body">saves the current safe revision.</text>

  <rect x="58" y="574" width="224" height="136" rx="14" fill="#FFF9F1" stroke="#EFDABD"/>
  <text x="74" y="596" class="panelTitle">Boot Metadata</text>
  <text x="74" y="620" class="mono">metadata.json</text>
  <text x="74" y="636" class="mono">project_config.json</text>
  <text x="74" y="652" class="mono">state/LOOP_STATE.json</text>
  <text x="74" y="674" class="body">Stores repo identity, status,</text>
  <text x="74" y="690" class="body">counters, checkpoints, and</text>
  <text x="74" y="706" class="body">safe revision outside the repo.</text>

  <rect x="318" y="286" width="286" height="460" rx="20" class="panel"/>
  <text x="338" y="314" class="section">2. PLAN COMPILER</text>

  <rect x="338" y="336" width="246" height="90" rx="14" fill="#F5F9FF" stroke="#C9D9EE"/>
  <text x="354" y="358" class="panelTitle">scan_repository_</text>
  <text x="354" y="376" class="panelTitle">inputs()</text>
  <text x="354" y="398" class="body">Reads README, AGENTS, and docs</text>
  <text x="354" y="414" class="body">into planning context.</text>

  <rect x="338" y="436" width="246" height="102" rx="14" fill="#F2F7FF" stroke="#C7D8F2"/>
  <text x="354" y="458" class="panelTitle">planning.py</text>
  <text x="354" y="478" class="mono">prompt_to_plan_decomposition_</text>
  <text x="354" y="491" class="mono">prompt()</text>
  <text x="354" y="505" class="mono">prompt_to_execution_plan_</text>
  <text x="354" y="518" class="mono">prompt()</text>
  <text x="354" y="534" class="body">Builds planner prompts from</text>
  <text x="354" y="550" class="body">repo context and runtime mode.</text>

  <rect x="338" y="548" width="246" height="110" rx="14" fill="#EEF5FF" stroke="#C7D8F2"/>
  <text x="354" y="570" class="panelTitle">CodexRunner.</text>
  <text x="354" y="588" class="panelTitle">run_pass()</text>
  <text x="354" y="608" class="body">Runs decomposition and packing</text>
  <text x="354" y="624" class="mono">plan-agent-a-decomposition</text>
  <text x="354" y="638" class="mono">plan-agent-b-packing</text>
  <text x="354" y="654" class="body">passes and logs each result.</text>

  <rect x="338" y="672" width="246" height="78" rx="14" fill="#F5FBF6" stroke="#CAE6D3"/>
  <text x="354" y="692" class="panelTitle">save_execution_plan_</text>
  <text x="354" y="710" class="panelTitle">state()</text>
  <text x="354" y="730" class="body">Normalizes the DAG and saves</text>
  <text x="354" y="744" class="body">planning artifacts.</text>

  <rect x="622" y="286" width="286" height="460" rx="20" class="panel"/>
  <text x="642" y="314" class="section">3. BLOCK EXECUTOR</text>

  <rect x="642" y="336" width="246" height="90" rx="14" fill="#F6FCFA" stroke="#CAE8DF"/>
  <text x="658" y="358" class="panelTitle">run() -&gt;</text>
  <text x="658" y="376" class="panelTitle">_run_single_block()</text>
  <text x="658" y="398" class="body">Advances block_index and gates</text>
  <text x="658" y="414" class="body">stop limits and checkpoints.</text>

  <rect x="642" y="436" width="246" height="100" rx="14" fill="#F7FCF8" stroke="#CAE8DF"/>
  <text x="658" y="460" class="panelTitle">Candidate Selection</text>
  <text x="658" y="482" class="mono">_plan_block_items()</text>
  <text x="658" y="498" class="mono">MemoryStore.render_context()</text>
  <text x="658" y="518" class="body">Builds MID_TERM_PLAN, ranks</text>
  <text x="658" y="534" class="body">tasks, and writes ACTIVE_TASK.md.</text>

  <rect x="642" y="552" width="246" height="92" rx="14" fill="#F0FBF8" stroke="#CAE8DF"/>
  <text x="658" y="574" class="panelTitle">implementation_</text>
  <text x="658" y="592" class="panelTitle">prompt()</text>
  <text x="658" y="612" class="body">Injects task, memory, success</text>
  <text x="658" y="628" class="body">rules, and scope guard.</text>

  <rect x="642" y="660" width="246" height="82" rx="14" fill="#ECFDF5" stroke="#BFE5D2"/>
  <text x="658" y="680" class="panelTitle">Execution Pass</text>
  <text x="658" y="700" class="mono">CodexRunner.run_pass(</text>
  <text x="658" y="713" class="mono">search_enabled=True)</text>
  <text x="658" y="728" class="body">Runs codex exec --json in repo_dir.</text>

  <rect x="926" y="286" width="494" height="460" rx="20" class="panel"/>
  <text x="946" y="314" class="section">4. VALIDATE, RECOVER, AND PERSIST</text>
  <line x1="1172" y1="336" x2="1172" y2="726" class="dash"/>

  <rect x="946" y="336" width="206" height="94" rx="14" fill="#FFF9F3" stroke="#EFD7C2"/>
  <text x="962" y="356" class="panelTitle">VerificationRunner.</text>
  <text x="962" y="374" class="panelTitle">run()</text>
  <text x="962" y="394" class="body">Builds a cache key from git state,</text>
  <text x="962" y="410" class="body">lockfiles, and test_cmd.</text>
  <text x="962" y="426" class="body">Reuses logs when fingerprints match.</text>

  <rect x="946" y="440" width="206" height="118" rx="14" fill="#FFF7F5" stroke="#F0D0CA"/>
  <text x="962" y="460" class="panelTitle">Failure Recovery</text>
  <text x="962" y="486" class="mono">_run_debugger_pass()</text>
  <text x="962" y="506" class="body">Debugger retries from failing logs.</text>
  <text x="962" y="522" class="body">If it still fails, reset to the</text>
  <text x="962" y="538" class="body">saved safe revision.</text>

  <rect x="946" y="574" width="206" height="94" rx="14" fill="#F5FBF6" stroke="#CAE6D3"/>
  <text x="962" y="596" class="panelTitle">Success Path</text>
  <text x="962" y="616" class="mono">git.commit_all()</text>
  <text x="962" y="629" class="mono">current_safe_revision =</text>
  <text x="962" y="642" class="mono">commit</text>
  <text x="962" y="658" class="body">Creates a verified commit and</text>
  <text x="962" y="674" class="body">updates current_safe_revision.</text>

  <rect x="946" y="686" width="206" height="46" rx="14" fill="#EEF4FF" stroke="#CDDCEF"/>
  <text x="962" y="706" class="body">Closeout uses a separate</text>
  <text x="962" y="720" class="body">finalization prompt and check.</text>

  <rect x="1192" y="336" width="208" height="172" rx="14" fill="#F3F8FF" stroke="#CADAF0"/>
  <text x="1208" y="360" class="panelTitle">Parallel DAG Branch</text>
  <text x="1208" y="380" class="mono">pending_execution_</text>
  <text x="1208" y="393" class="mono">batches()</text>
  <text x="1208" y="410" class="body">Groups ready steps by deps and</text>
  <text x="1208" y="426" class="body">owned-path conflicts.</text>
  <text x="1208" y="444" class="body">Workers run in isolated worktrees.</text>
  <text x="1208" y="460" class="body">Merged batches are verified again.</text>

  <rect x="1192" y="526" width="208" height="120" rx="14" fill="#F6FCFA" stroke="#CAE8DF"/>
  <text x="1208" y="548" class="panelTitle">Reporter +</text>
  <text x="1208" y="566" class="panelTitle">MemoryStore</text>
  <text x="1208" y="586" class="body">Stores logs, reviews, tests, and</text>
  <text x="1208" y="602" class="body">task memory after each block.</text>
  <text x="1208" y="618" class="body">Can post PR failure bundles.</text>

  <rect x="1192" y="658" width="208" height="74" rx="14" fill="#FFF7F5" stroke="#F0D0CA"/>
  <text x="1208" y="678" class="panelTitle">Failure Outputs</text>
  <text x="1208" y="698" class="mono">reports/*.prfail.json / .md</text>
  <text x="1208" y="711" class="mono">reports/latest_pr_</text>
  <text x="1208" y="724" class="mono">failure_status.json</text>

  <path d="M281 497H318" class="line"/>
  <path d="M604 497H622" class="line"/>
  <path d="M908 497H926" class="line"/>
  <path d="M174 256V286" class="line"/>

  <path d="M477 750V792" class="line"/>
  <path d="M764 742V792" class="line"/>
  <path d="M1102 732V792" class="line"/>
  <path d="M1296 512V526" class="line"/>

  <rect x="40" y="780" width="1380" height="216" rx="20" class="panel"/>
  <text x="60" y="808" class="section">PERSISTED ARTIFACTS PER PROJECT</text>
  <text x="60" y="830" class="body">Traceability stays outside the repo; only verified commits update it.</text>

  <rect x="58" y="850" width="238" height="122" rx="14" class="soft"/>
  <text x="74" y="874" class="panelTitle">docs/</text>
  <text x="74" y="898" class="mono">PLAN.md</text>
  <text x="74" y="914" class="mono">MID_TERM_PLAN.md</text>
  <text x="74" y="930" class="mono">ACTIVE_TASK.md</text>
  <text x="74" y="946" class="mono">EXECUTION_FLOW.svg</text>
  <text x="74" y="962" class="mono">CLOSEOUT_REPORT.md</text>

  <rect x="316" y="850" width="238" height="122" rx="14" class="soft"/>
  <text x="332" y="874" class="panelTitle">logs/</text>
  <text x="332" y="898" class="mono">block_000x/*.prompt.md</text>
  <text x="332" y="914" class="mono">block_000x/*.events.jsonl</text>
  <text x="332" y="930" class="mono">passes.jsonl</text>
  <text x="332" y="946" class="mono">blocks.jsonl</text>
  <text x="332" y="962" class="mono">test_runs.jsonl</text>

  <rect x="574" y="850" width="238" height="122" rx="14" class="soft"/>
  <text x="590" y="874" class="panelTitle">memory/</text>
  <text x="590" y="898" class="mono">success_patterns.jsonl</text>
  <text x="590" y="914" class="mono">failure_patterns.jsonl</text>
  <text x="590" y="930" class="mono">task_summaries.jsonl</text>
  <text x="590" y="952" class="body">Feeds future block selection</text>
  <text x="590" y="968" class="body">and recovery context.</text>

  <rect x="832" y="850" width="238" height="122" rx="14" class="soft"/>
  <text x="848" y="874" class="panelTitle">reports/</text>
  <text x="848" y="898" class="mono">latest_report.json</text>
  <text x="848" y="914" class="mono">*.prfail.json</text>
  <text x="848" y="930" class="mono">*.prfail.md</text>
  <text x="848" y="946" class="mono">CLOSEOUT_REPORT.docx</text>
  <text x="848" y="968" class="body">Status summaries and failure bundles</text>
  <text x="848" y="984" class="body">live here.</text>

  <rect x="1090" y="850" width="312" height="122" rx="14" class="soft"/>
  <text x="1106" y="874" class="panelTitle">state/</text>
  <text x="1106" y="898" class="mono">EXECUTION_PLAN.json</text>
  <text x="1106" y="914" class="mono">CHECKPOINTS.json</text>
  <text x="1106" y="930" class="mono">verification_cache/*</text>
  <text x="1106" y="946" class="mono">LOOP_STATE.json</text>
  <text x="1106" y="962" class="mono">ML_MODE_STATE.json</text>
  <text x="1106" y="984" class="body">Drives resume, status, and checkpoint review.</text>
</svg>
