<svg width="1280" height="860" viewBox="0 0 1280 860" fill="none" xmlns="http://www.w3.org/2000/svg" role="img" aria-labelledby="title desc">
  <title id="title">jakal-flow 아키텍처 개요</title>
  <desc id="desc">엔트리포인트에서 오케스트레이션 코어, 외부 시스템, 프로젝트별 워크스페이스로 이어지는 상위 흐름도.</desc>
  <defs>
    <linearGradient id="bg" x1="48" y1="30" x2="1232" y2="820" gradientUnits="userSpaceOnUse">
      <stop offset="0" stop-color="#F4F7FF"/>
      <stop offset="1" stop-color="#EEF8F2"/>
    </linearGradient>
    <linearGradient id="band" x1="52" y1="152" x2="1228" y2="256" gradientUnits="userSpaceOnUse">
      <stop offset="0" stop-color="#EEF4FF"/>
      <stop offset="1" stop-color="#F5FBF7"/>
    </linearGradient>
    <filter id="shadow" x="-20%" y="-20%" width="140%" height="160%">
      <feDropShadow dx="0" dy="6" stdDeviation="8" flood-color="#25364A" flood-opacity="0.10"/>
    </filter>
    <marker id="arrow" viewBox="0 0 10 10" refX="9" refY="5" markerWidth="8" markerHeight="8" orient="auto">
      <path d="M0 0L10 5L0 10Z" fill="#5B6B80"/>
    </marker>
    <style>
      .title { font: 700 34px 'Noto Sans KR', 'Malgun Gothic', 'Segoe UI', sans-serif; fill: #192635; }
      .subtitle { font: 500 16px 'Noto Sans KR', 'Malgun Gothic', 'Segoe UI', sans-serif; fill: #4E5F73; }
      .section { font: 700 14px 'Noto Sans KR', 'Malgun Gothic', 'Segoe UI', sans-serif; fill: #25364A; letter-spacing: 0.04em; }
      .boxTitle { font: 700 18px 'Noto Sans KR', 'Malgun Gothic', 'Segoe UI', sans-serif; fill: #1B2A3A; }
      .body { font: 500 13px 'Noto Sans KR', 'Malgun Gothic', 'Segoe UI', sans-serif; fill: #495B6E; }
      .chipLabel { font: 700 12px 'Noto Sans KR', 'Malgun Gothic', 'Segoe UI', sans-serif; fill: #FFFFFF; }
      .chipSub { font: 600 11px 'Noto Sans KR', 'Malgun Gothic', 'Segoe UI', sans-serif; fill: rgba(255,255,255,0.92); }
      .panel { fill: #FFFFFF; stroke: #D8E2EC; stroke-width: 1.5; filter: url(#shadow); }
      .subpanel { fill: #FFFFFF; stroke: #D8E2EC; stroke-width: 1.3; filter: url(#shadow); }
      .soft { fill: #FFFFFF; stroke: #D8E2EC; stroke-width: 1.3; }
      .sectionBand { fill: url(#band); stroke: #D8E2EC; stroke-width: 1.5; filter: url(#shadow); }
      .line { stroke: #5B6B80; stroke-width: 2.4; fill: none; marker-end: url(#arrow); }
      .divider { stroke: #D8E2EC; stroke-width: 1.4; stroke-linecap: round; }
    </style>
  </defs>

  <rect x="16" y="16" width="1248" height="828" rx="28" fill="url(#bg)"/>

  <text x="48" y="74" class="title">jakal-flow: 아키텍처와 실행 흐름</text>
  <text x="48" y="104" class="subtitle">인터페이스는 오케스트레이션과 분리됩니다.</text>
  <text x="48" y="128" class="subtitle">각 관리 저장소는 상태, 로그, 메모리, 문서, 리포트를 독립적으로 유지합니다.</text>

  <rect x="44" y="152" width="1192" height="116" rx="18" class="sectionBand"/>
  <line x1="64" y1="188" x2="1216" y2="188" class="divider"/>
  <text x="64" y="180" class="section">진입 지점</text>

  <rect x="66" y="202" width="220" height="50" rx="14" fill="#2463EB"/>
  <text x="84" y="223" class="chipLabel">CLI</text>
  <text x="84" y="241" class="chipSub">init-repo / run / resume</text>

  <rect x="304" y="202" width="220" height="50" rx="14" fill="#0F766E"/>
  <text x="322" y="223" class="chipLabel">데스크톱 UI</text>
  <text x="322" y="241" class="chipSub">React + Tauri 셸</text>

  <rect x="542" y="202" width="220" height="50" rx="14" fill="#B45309"/>
  <text x="560" y="223" class="chipLabel">공유 뷰어</text>
  <text x="560" y="241" class="chipSub">읽기 전용 모니터</text>

  <rect x="780" y="202" width="436" height="50" rx="14" fill="#BE185D"/>
  <text x="798" y="223" class="chipLabel">런타임 설정</text>
  <text x="798" y="241" class="chipSub">모델 / 샌드박스 / 승인 / 검증</text>

  <rect x="44" y="294" width="308" height="322" rx="18" class="panel"/>
  <text x="64" y="322" class="section">제어 계층</text>

  <rect x="64" y="340" width="268" height="82" rx="14" fill="#F4F8FF" stroke="#CBDCF5"/>
  <text x="80" y="368" class="boxTitle">React + Tauri 셸</text>
  <text x="80" y="390" class="body">프로젝트 설정, 계획 편집, 실행 제어,</text>
  <text x="80" y="408" class="body">체크포인트 승인과 공유 작업을 담당합니다.</text>

  <rect x="64" y="440" width="268" height="82" rx="14" fill="#F4FFFD" stroke="#C9ECE4"/>
  <text x="80" y="468" class="boxTitle">ui_bridge.py</text>
  <text x="80" y="490" class="body">UI 이벤트를 JSON 브리지 명령으로 바꾸고</text>
  <text x="80" y="508" class="body">Python 상태를 다시 읽어 화면을 갱신합니다.</text>

  <rect x="64" y="540" width="268" height="58" rx="14" fill="#FFF9F1" stroke="#F0DDBE"/>
  <text x="80" y="574" class="boxTitle">share_server.py + public_tunnel.py</text>

  <rect x="370" y="294" width="536" height="322" rx="18" class="panel"/>
  <text x="390" y="322" class="section">오케스트레이션 코어</text>

  <rect x="390" y="340" width="496" height="96" rx="14" fill="#EEF4FF" stroke="#CDDCF3"/>
  <text x="408" y="368" class="boxTitle">orchestrator.py</text>
  <text x="408" y="390" class="body">계획 실행, safe revision, 롤백, 재시도,</text>
  <text x="408" y="408" class="body">체크포인트 흐름, closeout, 리포트를 관리합니다.</text>

  <rect x="390" y="454" width="150" height="64" rx="12" class="subpanel"/>
  <text x="404" y="478" class="boxTitle">planning.py</text>
  <text x="404" y="498" class="body">PLAN / MID_TERM</text>

  <rect x="556" y="454" width="150" height="64" rx="12" class="subpanel"/>
  <text x="570" y="478" class="boxTitle">codex_runner.py</text>
  <text x="570" y="498" class="body">프롬프트와 이벤트</text>

  <rect x="722" y="454" width="164" height="64" rx="12" class="subpanel"/>
  <text x="736" y="478" class="boxTitle">git_ops.py</text>
  <text x="736" y="498" class="body">커밋 / 롤백</text>

  <rect x="390" y="536" width="150" height="64" rx="12" class="subpanel"/>
  <text x="404" y="560" class="boxTitle">workspace.py</text>
  <text x="404" y="580" class="body">저장소 격리</text>

  <rect x="556" y="536" width="150" height="64" rx="12" class="subpanel"/>
  <text x="570" y="560" class="boxTitle">memory.py</text>
  <text x="570" y="580" class="body">추적 가능한 메모리</text>

  <rect x="722" y="536" width="164" height="64" rx="12" class="subpanel"/>
  <text x="736" y="560" class="boxTitle">reporting.py</text>
  <text x="736" y="580" class="body">리포트 / 실패 번들</text>

  <rect x="924" y="294" width="312" height="322" rx="18" class="panel"/>
  <text x="944" y="322" class="section">외부 시스템</text>

  <rect x="944" y="340" width="272" height="64" rx="12" fill="#F4F8FF" stroke="#CFDDF1"/>
  <text x="960" y="366" class="boxTitle">Codex CLI</text>
  <text x="960" y="386" class="body">실행, 이벤트 스트림, 사용량 데이터를 제공</text>

  <rect x="944" y="422" width="272" height="64" rx="12" fill="#FFF8F2" stroke="#F0D7C2"/>
  <text x="960" y="448" class="boxTitle">관리 대상 Git 저장소</text>
  <text x="960" y="468" class="body">코드 수정, 테스트, 커밋, safe reset 대상</text>

  <rect x="944" y="504" width="272" height="80" rx="12" fill="#F5FBF7" stroke="#CFE8D7"/>
  <text x="960" y="530" class="boxTitle">GitHub / 원격 origin</text>
  <text x="960" y="550" class="body">검증된 푸시, PR 실패 보고,</text>
  <text x="960" y="568" class="body">저장소 호스팅과 연동</text>

  <rect x="44" y="648" width="1192" height="176" rx="18" class="panel"/>
  <text x="64" y="676" class="section">프로젝트별 워크스페이스</text>
  <text x="64" y="698" class="body">모든 관리 저장소는 projects/&lt;repo_slug&gt;/ 아래에 산출물을 분리 보관합니다.</text>

  <rect x="64" y="724" width="154" height="78" rx="12" class="soft"/>
  <text x="80" y="754" class="boxTitle">repo/</text>
  <text x="80" y="774" class="body">작업 트리</text>

  <rect x="232" y="724" width="154" height="78" rx="12" class="soft"/>
  <text x="248" y="754" class="boxTitle">docs/</text>
  <text x="248" y="774" class="body">계획과 리뷰 문서</text>

  <rect x="400" y="724" width="154" height="78" rx="12" class="soft"/>
  <text x="416" y="754" class="boxTitle">memory/</text>
  <text x="416" y="774" class="body">성공 / 실패 메모</text>

  <rect x="568" y="724" width="154" height="78" rx="12" class="soft"/>
  <text x="584" y="754" class="boxTitle">logs/</text>
  <text x="584" y="774" class="body">JSONL 추적 로그</text>

  <rect x="736" y="724" width="154" height="78" rx="12" class="soft"/>
  <text x="752" y="754" class="boxTitle">reports/</text>
  <text x="752" y="774" class="body">최신 리포트와 실패 번들</text>

  <rect x="904" y="724" width="154" height="78" rx="12" class="soft"/>
  <text x="920" y="754" class="boxTitle">state/</text>
  <text x="920" y="774" class="body">체크포인트와 제어 상태</text>

  <rect x="1072" y="724" width="144" height="78" rx="12" class="soft"/>
  <text x="1088" y="754" class="boxTitle">metadata.json</text>
  <text x="1088" y="774" class="body">프로젝트 설정</text>

  <path d="M176 252V284" class="line"/>
  <path d="M414 252V284" class="line"/>
  <path d="M652 252V284" class="line"/>
  <path d="M998 252V284" class="line"/>

  <path d="M332 482H370" class="line"/>
  <path d="M906 372H924" class="line"/>
  <path d="M906 454H924" class="line"/>
  <path d="M906 544H924" class="line"/>

  <path d="M640 616V700" class="line"/>
  <path d="M1080 584V700" class="line"/>
</svg>
