<svg width="1280" height="760" viewBox="0 0 1280 760" fill="none" xmlns="http://www.w3.org/2000/svg" role="img" aria-labelledby="title desc">
  <title id="title">jakal-flow 아키텍처 개요</title>
  <desc id="desc">CLI와 데스크톱 UI에서 오케스트레이션 코어, 외부 시스템, 프로젝트별 워크스페이스로 이어지는 흐름도.</desc>
  <defs>
    <linearGradient id="bg" x1="70" y1="40" x2="1210" y2="720" gradientUnits="userSpaceOnUse">
      <stop offset="0" stop-color="#F3F7FF"/>
      <stop offset="1" stop-color="#EEF7F2"/>
    </linearGradient>
    <linearGradient id="headerBand" x1="44" y1="132" x2="1236" y2="222" gradientUnits="userSpaceOnUse">
      <stop offset="0" stop-color="#EEF4FF"/>
      <stop offset="1" stop-color="#F5FBF7"/>
    </linearGradient>
    <filter id="softShadow" x="-20%" y="-20%" width="140%" height="160%">
      <feDropShadow dx="0" dy="5" stdDeviation="6" flood-color="#25364A" flood-opacity="0.1"/>
    </filter>
    <marker id="arrow" viewBox="0 0 10 10" refX="9" refY="5" markerWidth="8" markerHeight="8" orient="auto">
      <path d="M0 0L10 5L0 10Z" fill="#4B5B70"/>
    </marker>
    <style>
      .title { font: 700 34px 'Noto Sans KR', 'Malgun Gothic', 'Segoe UI', sans-serif; fill: #192635; }
      .subtitle { font: 500 16px 'Noto Sans KR', 'Malgun Gothic', 'Segoe UI', sans-serif; fill: #4E5F73; }
      .section { font: 700 14px 'Noto Sans KR', 'Malgun Gothic', 'Segoe UI', sans-serif; fill: #25364A; letter-spacing: 0.05em; }
      .boxTitle { font: 700 18px 'Noto Sans KR', 'Malgun Gothic', 'Segoe UI', sans-serif; fill: #1B2A3A; }
      .body { font: 500 13px 'Noto Sans KR', 'Malgun Gothic', 'Segoe UI', sans-serif; fill: #495B6E; }
      .chip { font: 700 12px 'Noto Sans KR', 'Malgun Gothic', 'Segoe UI', sans-serif; fill: #FFFFFF; }
      .panel { fill: #FFFFFF; stroke: #D8E2EC; stroke-width: 1.5; filter: url(#softShadow); }
      .subpanel { fill: #FFFFFF; stroke: #D8E2EC; stroke-width: 1.3; filter: url(#softShadow); }
      .soft { fill: #FFFFFF; stroke: #D8E2EC; stroke-width: 1.3; }
      .sectionBand { fill: url(#headerBand); stroke: #D8E2EC; stroke-width: 1.5; filter: url(#softShadow); }
      .line { stroke: #4B5B70; stroke-width: 2.4; fill: none; marker-end: url(#arrow); }
      .divider { stroke: #D8E2EC; stroke-width: 1.4; stroke-linecap: round; }
    </style>
  </defs>

  <rect x="16" y="16" width="1248" height="728" rx="28" fill="url(#bg)"/>

  <text x="48" y="74" class="title">jakal-flow: 아키텍처와 실행 흐름</text>
  <text x="48" y="102" class="subtitle">인터페이스와 오케스트레이션을 분리하고, 저장소별 상태/로그/메모리/문서/리포트를 독립적으로 유지합니다.</text>

  <rect x="44" y="132" width="1192" height="90" rx="18" class="sectionBand"/>
  <line x1="64" y1="166" x2="1216" y2="166" class="divider"/>
  <text x="64" y="160" class="section">진입 지점</text>

  <rect x="66" y="172" width="210" height="34" rx="12" fill="#2463EB"/>
  <text x="84" y="194" class="chip">CLI: init-repo / run / resume</text>

  <rect x="296" y="172" width="240" height="34" rx="12" fill="#0F766E"/>
  <text x="314" y="194" class="chip">데스크톱 UI: React + Tauri</text>

  <rect x="556" y="172" width="250" height="34" rx="12" fill="#B45309"/>
  <text x="574" y="194" class="chip">공유 뷰어: 읽기 전용 모니터</text>

  <rect x="826" y="172" width="390" height="34" rx="12" fill="#BE185D"/>
  <text x="844" y="194" class="chip">설정: 모델 / 샌드박스 / 승인 / 검증</text>

  <rect x="44" y="248" width="300" height="288" rx="18" class="panel"/>
  <text x="64" y="276" class="section">제어 계층</text>

  <rect x="64" y="294" width="260" height="72" rx="14" fill="#F4F8FF" stroke="#CBDCF5"/>
  <text x="80" y="320" class="boxTitle">React + Tauri 쉘</text>
  <text x="80" y="340" class="body">프로젝트 설정, 계획 편집, 실행 제어, 체크포인트 승인.</text>

  <rect x="64" y="382" width="260" height="72" rx="14" fill="#F4FFFD" stroke="#C9ECE4"/>
  <text x="80" y="408" class="boxTitle">ui_bridge.py</text>
  <text x="80" y="428" class="body">UI 이벤트를 JSON 브리지 명령으로 변환하고 상태를 갱신.</text>

  <rect x="64" y="470" width="260" height="52" rx="14" fill="#FFF9F1" stroke="#F0DDBE"/>
  <text x="80" y="500" class="boxTitle">share_server.py + public_tunnel.py</text>

  <rect x="364" y="248" width="542" height="288" rx="18" class="panel"/>
  <text x="384" y="276" class="section">오케스트레이션 코어</text>

  <rect x="384" y="294" width="502" height="92" rx="14" fill="#EEF4FF" stroke="#CDDCF3"/>
  <text x="402" y="322" class="boxTitle">orchestrator.py</text>
  <text x="402" y="342" class="body">계획 실행, 안전 리비전, 롤백, 재시도, 체크포인트 흐름 관리.</text>
  <text x="402" y="360" class="body">직렬 블록 실행과 DAG 병렬 실행, 클로즈아웃을 지원.</text>

  <rect x="384" y="402" width="156" height="54" rx="12" class="subpanel"/>
  <text x="398" y="425" class="boxTitle">planning.py</text>
  <text x="398" y="442" class="body">PLAN / MID_TERM</text>

  <rect x="556" y="402" width="156" height="54" rx="12" class="subpanel"/>
  <text x="570" y="425" class="boxTitle">codex_runner.py</text>
  <text x="570" y="442" class="body">프롬프트 + 이벤트</text>

  <rect x="728" y="402" width="158" height="54" rx="12" class="subpanel"/>
  <text x="742" y="425" class="boxTitle">git_ops.py</text>
  <text x="742" y="442" class="body">커밋 / 리셋</text>

  <rect x="384" y="472" width="156" height="54" rx="12" class="subpanel"/>
  <text x="398" y="495" class="boxTitle">workspace.py</text>
  <text x="398" y="512" class="body">저장소 격리</text>

  <rect x="556" y="472" width="156" height="54" rx="12" class="subpanel"/>
  <text x="570" y="495" class="boxTitle">memory.py</text>
  <text x="570" y="512" class="body">추적 가능한 메모리</text>

  <rect x="728" y="472" width="158" height="54" rx="12" class="subpanel"/>
  <text x="742" y="495" class="boxTitle">reporting.py</text>
  <text x="742" y="512" class="body">리포트 / 실패 번들</text>

  <rect x="926" y="248" width="310" height="288" rx="18" class="panel"/>
  <text x="946" y="276" class="section">외부 시스템</text>

  <rect x="946" y="294" width="270" height="56" rx="12" fill="#F4F8FF" stroke="#CFDDF1"/>
  <text x="962" y="318" class="boxTitle">Codex CLI</text>
  <text x="962" y="336" class="body">실행 + 이벤트 스트림 + 사용량</text>

  <rect x="946" y="362" width="270" height="56" rx="12" fill="#FFF8F2" stroke="#F0D7C2"/>
  <text x="962" y="386" class="boxTitle">관리 대상 Git 저장소</text>
  <text x="962" y="404" class="body">코드 수정, 테스트, 커밋, 안전 리셋 기준점</text>

  <rect x="946" y="430" width="270" height="56" rx="12" fill="#F5FBF7" stroke="#CFE8D7"/>
  <text x="962" y="454" class="boxTitle">GitHub / 원격 저장소</text>
  <text x="962" y="472" class="body">검증된 커밋 푸시, PR 업데이트</text>

  <rect x="44" y="560" width="1192" height="164" rx="18" class="panel"/>
  <text x="64" y="588" class="section">프로젝트별 워크스페이스</text>
  <text x="64" y="608" class="body">관리되는 저장소마다 projects/&lt;repo_slug&gt;/ 아래에 산출물을 분리 저장합니다.</text>

  <rect x="64" y="626" width="154" height="74" rx="12" class="soft"/>
  <text x="80" y="654" class="boxTitle">repo/</text>
  <text x="80" y="672" class="body">작업 트리</text>

  <rect x="232" y="626" width="154" height="74" rx="12" class="soft"/>
  <text x="248" y="654" class="boxTitle">docs/</text>
  <text x="248" y="672" class="body">PLAN, 리뷰 문서</text>

  <rect x="400" y="626" width="154" height="74" rx="12" class="soft"/>
  <text x="416" y="654" class="boxTitle">memory/</text>
  <text x="416" y="672" class="body">성공/실패 패턴</text>

  <rect x="568" y="626" width="154" height="74" rx="12" class="soft"/>
  <text x="584" y="654" class="boxTitle">logs/</text>
  <text x="584" y="672" class="body">jsonl 추적 로그</text>

  <rect x="736" y="626" width="154" height="74" rx="12" class="soft"/>
  <text x="752" y="654" class="boxTitle">reports/</text>
  <text x="752" y="672" class="body">최신/실패 리포트</text>

  <rect x="904" y="626" width="154" height="74" rx="12" class="soft"/>
  <text x="920" y="654" class="boxTitle">state/</text>
  <text x="920" y="672" class="body">체크포인트 등</text>

  <rect x="1072" y="626" width="144" height="74" rx="12" class="soft"/>
  <text x="1088" y="654" class="boxTitle">metadata.json</text>
  <text x="1088" y="672" class="body">프로젝트 설정</text>

  <path d="M170 206V238" class="line"/>
  <path d="M416 206V238" class="line"/>
  <path d="M680 206V238" class="line"/>
  <path d="M1020 206V238" class="line"/>

  <path d="M324 418H364" class="line"/>
  <path d="M906 322H926" class="line"/>
  <path d="M906 390H926" class="line"/>
  <path d="M906 458H926" class="line"/>

  <path d="M640 536V612" class="line"/>
  <path d="M1080 486V612" class="line"/>
</svg>
